# xmcd
#
# Track frame offsets: 
#        150
#        11044
#        28292
#        37540
#        49918
#        64103
#        76754
#        91001
#        100321
#        111315
#        125105
#        137178
#        144551
#        159859
#        168093
#
# Disc length: 2370 seconds
#
# Revision: 1
# Processed by: cddbd v1.5.2PL0 Copyright (c) Steve Scherf et al.
# Submitted via: ExactAudioCopy v0.99pb5
#
DISCID=be09400f
DTITLE=Blind John Davis - My Own Boogie
DYEAR=1900
DGENRE=Blues
TTITLE0=My Own Boogie
TTITLE1=Everyday I Have The Blues
TTITLE2=Texas Tony
TTITLE3=Trouble In Mind
TTITLE4=If I Had A Listen
TTITLE5=St. Louis Blues
TTITLE6=After Hours
TTITLE7=How Long Blues
TTITLE8=Everybody´s Boogie
TTITLE9=Memphis Blues
TTITLE10=Rockin´Chair Boogie
TTITLE11=The House Of Blues Lights
TTITLE12=C.C. Rider
TTITLE13=Run Away Boogie
TTITLE14=Pinetop Boogie
EXTD=ID3G: 47
EXTT0=
EXTT1=
EXTT2=
EXTT3=
EXTT4=
EXTT5=
EXTT6=
EXTT7=
EXTT8=
EXTT9=
EXTT10=
EXTT11=
EXTT12=
EXTT13=
EXTT14=
PLAYORDER=
